<?xml version="1.0" standalone="no"?>
<!DOCTYPE svg PUBLIC "-//W3C//DTD SVG 20010904//EN"
 "http://www.w3.org/TR/2001/REC-SVG-20010904/DTD/svg10.dtd">
<svg version="1.0" xmlns="http://www.w3.org/2000/svg"
 width="951.000000pt" height="960.000000pt" viewBox="0 0 951.000000 960.000000"
 preserveAspectRatio="xMidYMid meet">
<metadata>
Created by potrace 1.15, written by Peter Selinger 2001-2017
</metadata>
<g transform="translate(0.000000,960.000000) scale(0.100000,-0.100000)"
fill="#000000" stroke="none">
<path d="M4727 9174 c-3 -4 -247 -16 -344 -18 -24 0 -43 -4 -43 -9 0 -5 -7 -6
-15 -3 -21 8 -32 -22 -44 -124 -6 -47 -15 -105 -21 -130 -6 -25 -15 -81 -21
-125 -5 -44 -18 -118 -29 -165 -11 -47 -22 -102 -25 -122 -5 -29 -11 -38 -25
-38 -11 0 -20 -3 -20 -7 0 -5 -10 -9 -22 -10 -13 0 -42 -3 -66 -6 -41 -4 -45
-2 -80 42 -20 25 -41 48 -45 49 -4 2 -32 36 -61 75 -29 40 -64 84 -77 98 -56
61 -89 101 -89 109 0 5 -6 13 -14 17 -8 4 -39 41 -70 80 -32 40 -66 78 -77 83
-21 12 -86 4 -95 -11 -3 -5 -16 -9 -30 -9 -13 0 -24 -5 -24 -11 0 -6 -7 -9
-15 -5 -8 3 -15 1 -15 -4 0 -6 -11 -10 -24 -10 -14 0 -27 -4 -31 -10 -3 -5
-12 -7 -19 -4 -7 3 -28 -4 -46 -14 -17 -11 -40 -17 -51 -15 -10 3 -19 0 -19
-6 0 -6 -9 -11 -20 -11 -11 0 -20 -4 -20 -10 0 -5 -9 -10 -19 -10 -11 0 -23
-4 -26 -10 -3 -5 -15 -10 -26 -10 -10 0 -19 -5 -19 -11 0 -5 -4 -8 -9 -5 -5 3
-37 -8 -72 -25 -35 -18 -73 -35 -84 -40 -77 -31 -113 -50 -117 -61 -7 -19 0
-89 11 -102 5 -6 14 -51 20 -99 7 -48 16 -98 21 -110 4 -12 15 -60 24 -107 9
-47 23 -121 32 -165 29 -147 29 -137 -10 -173 -19 -17 -42 -32 -51 -32 -8 0
-15 -5 -15 -11 0 -6 -6 -9 -14 -6 -8 3 -17 -1 -20 -9 -8 -20 -28 -17 -54 7
-22 20 -81 54 -172 101 -25 13 -57 33 -70 46 -13 12 -31 22 -39 22 -8 0 -26
11 -40 24 -28 27 -83 59 -173 102 -32 14 -58 30 -58 34 0 10 -48 30 -74 30
-13 0 -39 -15 -58 -32 -70 -66 -111 -98 -125 -98 -7 0 -13 -4 -13 -10 0 -13
-32 -50 -43 -50 -12 0 -62 -40 -51 -41 5 0 -1 -4 -14 -9 -12 -5 -25 -17 -29
-26 -7 -19 -39 -54 -49 -54 -3 0 -33 -29 -67 -63 -154 -158 -178 -194 -143
-214 7 -4 19 -25 25 -45 7 -20 25 -53 42 -74 16 -20 29 -43 29 -50 0 -8 4 -14
9 -14 5 0 11 -8 14 -17 4 -10 18 -36 31 -58 14 -22 33 -55 43 -72 9 -18 20
-33 25 -33 4 0 8 -9 8 -19 0 -11 5 -23 11 -27 6 -3 18 -21 26 -38 18 -40 31
-60 71 -118 18 -27 28 -48 22 -48 -8 0 -8 -6 0 -20 8 -15 8 -18 -3 -14 -8 3
-19 -7 -27 -23 -21 -41 -60 -87 -80 -95 -10 -4 -73 7 -140 23 -89 21 -126 27
-135 19 -9 -8 -15 -8 -20 0 -3 5 -16 10 -28 10 -12 0 -76 13 -142 30 -66 16
-147 34 -180 39 -33 4 -67 11 -75 15 -8 3 -20 2 -26 -2 -30 -21 -204 -354
-204 -391 0 -11 -7 -26 -15 -35 -8 -8 -15 -21 -15 -29 0 -8 -7 -20 -15 -27 -8
-7 -15 -17 -15 -22 0 -5 -11 -34 -25 -64 -14 -30 -25 -63 -25 -74 0 -11 -4
-20 -10 -20 -5 0 -10 -8 -10 -17 0 -9 -6 -24 -14 -32 -22 -26 -30 -61 -13 -61
8 0 22 -11 31 -25 9 -14 23 -25 31 -25 8 0 15 -4 15 -8 0 -9 96 -82 109 -82 5
0 16 -11 25 -25 9 -14 23 -25 31 -25 8 0 15 -7 15 -15 0 -9 12 -21 27 -28 15
-6 47 -31 72 -54 25 -23 55 -50 66 -60 11 -10 32 -24 48 -30 16 -7 26 -17 22
-22 -3 -6 5 -15 17 -22 13 -7 35 -24 50 -38 31 -29 32 -64 3 -160 -16 -53 -17
-53 -51 -48 -19 3 -34 2 -34 -2 0 -7 -121 -29 -185 -34 -16 -1 -36 -6 -43 -10
-7 -5 -24 -6 -38 -3 -14 4 -24 2 -24 -4 0 -6 -15 -11 -32 -10 -53 0 -188 -23
-188 -32 0 -5 -15 -6 -34 -3 -20 4 -36 2 -40 -4 -4 -5 -14 -7 -22 -4 -8 3 -25
1 -37 -5 -12 -5 -30 -13 -39 -16 -14 -4 -18 -17 -18 -59 0 -30 -6 -92 -14
-138 -7 -46 -13 -100 -13 -119 0 -19 -5 -73 -11 -120 -13 -95 -19 -380 -8
-398 3 -6 43 -22 88 -36 45 -15 91 -32 102 -40 12 -7 55 -23 96 -35 41 -13 91
-29 110 -36 19 -7 55 -19 80 -26 25 -7 54 -18 65 -25 11 -6 50 -21 86 -33 95
-31 100 -36 100 -106 1 -32 5 -69 10 -81 5 -16 3 -26 -8 -35 -20 -17 -54 -37
-75 -45 -10 -3 -18 -10 -18 -14 0 -5 -14 -11 -31 -15 -17 -4 -33 -13 -36 -21
-3 -8 -14 -14 -24 -14 -10 0 -19 -4 -19 -10 0 -5 -5 -10 -12 -10 -19 0 -98
-41 -98 -51 0 -5 -9 -9 -20 -9 -11 0 -20 -4 -20 -10 0 -5 -9 -10 -20 -10 -11
0 -20 -5 -20 -10 0 -6 -18 -18 -40 -27 -22 -10 -40 -21 -40 -25 0 -5 -9 -8
-19 -8 -11 0 -23 -4 -26 -10 -3 -5 -15 -10 -26 -10 -10 0 -19 -4 -19 -9 0 -4
-20 -19 -45 -32 -49 -26 -53 -40 -34 -114 6 -22 16 -67 23 -100 8 -33 30 -116
51 -185 21 -69 38 -135 39 -147 2 -13 6 -26 9 -30 4 -3 7 -15 7 -26 0 -10 9
-32 20 -47 11 -16 20 -32 19 -37 -1 -4 4 -21 11 -38 7 -16 14 -34 15 -40 6
-46 19 -63 48 -68 24 -4 446 -2 537 3 49 2 191 -9 204 -17 9 -5 33 -42 53 -83
32 -63 36 -77 25 -90 -7 -8 -35 -38 -62 -67 -28 -29 -50 -57 -50 -63 0 -5 -6
-10 -13 -10 -8 0 -20 -12 -28 -27 -13 -27 -35 -54 -70 -91 -9 -9 -22 -27 -28
-39 -6 -13 -17 -23 -24 -23 -7 -1 -34 -30 -62 -66 -27 -35 -62 -78 -78 -95
-15 -16 -27 -36 -27 -44 0 -8 -7 -15 -16 -15 -13 0 -14 -3 -5 -13 6 -8 9 -16
6 -19 -3 -3 1 -11 10 -18 8 -7 15 -19 15 -26 0 -8 5 -14 10 -14 6 0 10 -6 10
-13 0 -7 11 -24 25 -39 14 -15 25 -31 25 -36 0 -6 6 -12 14 -15 8 -3 17 -19
21 -36 4 -17 15 -33 26 -36 11 -4 17 -10 15 -14 -3 -4 3 -15 12 -24 27 -25 42
-45 42 -57 0 -6 7 -13 15 -16 8 -4 15 -12 15 -19 0 -8 9 -17 20 -20 11 -4 17
-11 14 -17 -4 -5 8 -23 25 -38 17 -16 31 -32 31 -35 0 -6 27 -38 78 -92 12
-13 22 -26 22 -28 0 -3 9 -14 20 -25 24 -24 72 -20 124 11 17 9 52 21 79 24
26 4 47 11 47 15 0 5 23 14 50 21 28 7 50 16 50 20 0 7 33 18 75 26 11 2 22 8
23 13 2 6 12 10 22 10 10 0 21 4 24 9 3 5 26 12 51 15 25 4 45 11 45 17 0 5 9
9 20 9 11 0 30 5 43 12 73 38 78 37 127 -12 22 -22 44 -40 49 -40 12 0 41 -58
41 -82 0 -10 -4 -18 -9 -18 -11 0 -42 -75 -65 -155 -19 -64 -24 -78 -50 -138
-9 -21 -16 -47 -16 -57 0 -11 -4 -20 -9 -20 -4 0 -14 -21 -21 -47 -15 -60 -38
-128 -58 -172 -16 -34 -16 -34 19 -63 19 -16 46 -40 61 -53 15 -14 31 -25 37
-25 5 0 16 -6 23 -13 7 -7 38 -28 68 -47 30 -19 57 -37 60 -41 3 -3 24 -16 47
-28 23 -11 44 -25 47 -30 4 -5 20 -12 36 -16 17 -4 30 -13 30 -21 0 -7 12 -17
28 -20 15 -4 34 -12 42 -19 30 -24 150 -85 168 -85 10 0 27 9 37 20 10 11 24
20 32 20 7 0 13 4 13 8 0 5 11 14 25 20 14 6 25 18 25 27 0 8 3 15 8 15 4 0
21 13 39 28 40 35 54 46 138 112 39 30 79 63 91 75 11 11 37 34 58 50 20 17
51 42 68 58 18 15 34 27 37 27 9 0 161 -67 168 -74 7 -6 6 -155 -1 -191 -2
-11 0 -25 5 -31 5 -6 5 -24 1 -40 -4 -16 -6 -110 -5 -209 2 -99 3 -189 3 -201
1 -23 35 -37 123 -49 26 -4 47 -11 47 -15 0 -8 73 -28 122 -35 12 -1 35 -7 49
-13 15 -6 30 -8 33 -5 3 3 18 1 33 -5 15 -7 49 -13 74 -15 25 -2 50 -6 55 -9
5 -3 34 -9 64 -12 30 -4 79 -12 109 -18 l54 -10 33 38 c18 22 33 45 34 51 0 7
8 21 18 31 11 11 40 62 66 115 27 54 51 97 56 97 4 0 15 18 25 40 10 22 29 55
42 72 12 18 23 40 23 50 0 10 4 18 10 18 5 0 19 22 31 48 l22 48 76 -2 c42 -1
86 -3 97 -3 13 -1 25 -10 29 -23 4 -13 8 -26 10 -30 1 -5 3 -15 4 -24 0 -9 6
-12 13 -8 7 4 8 3 4 -5 -4 -6 -3 -17 2 -24 6 -7 13 -30 18 -51 4 -22 13 -51
20 -65 8 -14 14 -31 14 -38 0 -6 6 -18 13 -25 7 -7 18 -33 24 -58 15 -58 42
-140 54 -162 5 -10 9 -25 9 -33 0 -8 5 -15 10 -15 6 0 10 -8 10 -18 0 -10 6
-26 13 -36 13 -18 21 -18 133 -6 105 11 158 16 254 23 14 1 30 6 37 10 7 4 27
7 45 7 28 0 242 33 258 40 3 1 8 2 12 2 3 -1 10 4 15 11 12 15 51 165 59 227
7 55 32 183 44 230 5 19 12 67 15 105 7 85 26 114 86 132 24 7 57 18 72 23 31
10 47 -3 112 -85 16 -21 44 -53 62 -72 18 -18 33 -36 33 -39 0 -2 14 -18 30
-34 17 -16 30 -33 30 -37 0 -4 18 -27 40 -51 22 -24 40 -47 40 -51 0 -5 9 -11
20 -14 11 -3 20 -12 20 -21 0 -9 5 -16 10 -16 6 0 10 -5 10 -11 0 -6 6 -16 13
-23 17 -18 57 -30 57 -18 0 6 12 13 28 17 37 9 122 48 122 57 0 3 15 10 33 13
17 4 39 13 47 20 24 21 89 55 105 55 8 0 15 5 15 10 0 6 7 10 15 10 8 0 15 5
15 10 0 6 8 10 18 10 10 0 28 9 40 20 12 11 28 20 37 20 8 0 15 5 15 10 0 6 5
10 11 10 6 0 30 13 54 30 24 16 48 30 53 30 9 0 26 28 24 40 -13 88 -26 181
-27 201 -1 14 -5 30 -8 36 -4 6 -9 33 -11 59 -2 27 -6 56 -9 64 -3 8 -14 71
-25 140 l-20 125 47 43 c25 23 52 42 58 42 7 0 13 5 13 10 0 19 82 2 100 -21
3 -3 23 -16 45 -28 22 -12 63 -35 90 -51 28 -16 66 -37 85 -46 19 -9 37 -19
40 -23 3 -4 23 -16 45 -27 65 -33 108 -58 123 -72 7 -6 20 -12 28 -12 19 0
344 329 344 349 0 3 12 17 25 30 14 13 25 27 25 32 0 5 6 9 14 9 8 0 17 9 21
19 3 11 21 36 40 57 19 21 35 43 35 50 0 7 -15 40 -32 74 -18 34 -39 74 -46
89 -7 14 -19 37 -27 51 -8 14 -29 54 -46 90 -18 36 -35 67 -38 70 -3 3 -26 44
-50 93 -31 63 -41 94 -37 112 4 14 11 25 16 25 5 0 21 22 37 50 19 34 33 48
43 45 9 -3 65 -11 126 -20 61 -8 142 -21 180 -29 38 -8 100 -18 137 -21 37 -4
82 -11 99 -16 35 -10 58 2 58 30 0 10 9 27 20 39 11 12 20 27 20 34 0 7 11 32
24 55 13 23 30 59 36 80 7 21 16 40 19 43 3 3 15 30 25 60 11 30 29 73 41 95
13 22 33 75 45 117 13 43 27 75 31 72 5 -3 9 8 9 24 0 22 -12 40 -49 75 -27
25 -46 48 -44 51 3 3 -5 10 -18 15 -28 11 -79 57 -79 71 0 6 -4 10 -9 10 -5 0
-29 20 -54 45 -26 25 -51 45 -57 45 -6 0 -9 4 -6 8 3 5 -15 24 -39 42 -25 19
-45 39 -45 46 0 6 -9 14 -20 17 -24 6 -25 27 -4 111 16 63 17 64 57 74 49 13
163 36 262 53 39 6 76 16 82 21 7 6 19 8 27 5 8 -3 30 -1 48 4 18 6 42 12 53
14 11 2 29 6 40 9 11 2 26 5 33 5 8 1 12 19 12 54 0 29 6 76 14 103 7 27 14
74 15 104 1 30 6 91 11 136 12 96 16 327 6 343 -4 6 -15 11 -26 11 -10 0 -21
7 -24 16 -4 9 -9 14 -13 11 -3 -4 -11 -3 -18 3 -6 5 -54 26 -105 46 -52 20
-124 51 -160 68 -36 18 -93 43 -127 55 -56 21 -62 26 -68 57 -3 19 -3 44 0 54
3 11 1 29 -5 40 -9 18 -8 25 7 42 20 22 100 78 112 78 4 0 21 11 37 25 16 14
33 25 37 25 4 0 47 25 94 56 48 31 91 57 97 58 16 3 68 37 95 63 16 16 24 33
23 53 -1 17 -2 38 -3 48 -2 40 -22 148 -29 157 -4 6 -13 44 -20 85 -18 113
-90 393 -103 407 -15 14 -58 20 -74 10 -6 -4 -24 -2 -39 3 -15 6 -40 8 -55 5
-15 -4 -37 -1 -49 5 -16 9 -25 8 -35 0 -8 -7 -19 -9 -25 -5 -10 6 -131 14
-267 19 -48 1 -59 12 -86 86 -28 75 -25 83 74 187 21 23 39 47 39 53 0 11 53
82 90 121 8 9 26 31 40 49 14 18 31 38 38 45 6 8 12 16 12 18 0 2 16 22 35 43
36 38 43 62 25 80 -9 9 -26 40 -99 179 -14 28 -38 69 -54 92 -15 24 -27 46
-27 49 0 4 -11 22 -25 40 -14 18 -25 35 -25 39 0 9 -84 129 -92 133 -5 2 -8 9
-8 15 -1 17 -42 63 -62 70 -9 3 -42 -3 -72 -14 -31 -10 -62 -19 -71 -19 -8 0
-15 -4 -15 -9 0 -5 -9 -7 -20 -4 -11 3 -20 0 -20 -6 0 -6 -10 -11 -23 -11 -13
0 -32 -6 -43 -14 -10 -8 -29 -12 -41 -9 -15 3 -23 1 -23 -7 0 -7 -7 -10 -15
-6 -8 3 -15 1 -15 -4 0 -6 -9 -10 -19 -10 -11 0 -23 -5 -26 -10 -4 -6 -11 -8
-16 -4 -5 3 -15 1 -22 -4 -7 -5 -32 -14 -57 -20 -25 -6 -54 -13 -66 -17 -19
-6 -45 16 -105 93 -10 12 12 123 32 164 5 10 13 26 18 37 5 10 13 36 16 57 4
22 15 57 25 79 17 37 37 106 62 215 6 25 17 53 25 62 19 22 15 28 -77 115 -36
35 -74 72 -85 83 -12 11 -25 20 -29 20 -5 0 -18 10 -30 23 -35 36 -135 121
-157 132 -10 6 -26 21 -35 33 -8 12 -22 22 -30 22 -7 0 -30 16 -51 35 -35 33
-123 73 -123 55 0 -4 -13 -16 -29 -27 -16 -10 -51 -37 -78 -61 -46 -40 -226
-185 -282 -227 -15 -11 -38 -30 -51 -42 -30 -28 -31 -28 -88 2 -26 14 -52 25
-59 25 -31 0 -36 44 -37 373 l-1 329 -32 27 c-18 15 -65 39 -105 55 -40 15
-82 31 -93 36 -11 5 -60 22 -110 38 -49 16 -144 49 -210 72 -153 54 -199 60
-231 29 -13 -12 -24 -30 -24 -39 0 -9 -11 -27 -25 -40 -14 -13 -25 -31 -25
-40 0 -9 -9 -27 -20 -40 -11 -13 -23 -35 -27 -49 -3 -14 -15 -37 -25 -51 -39
-50 -98 -150 -98 -164 0 -8 -5 -18 -10 -21 -6 -4 -20 -27 -31 -51 -26 -55 -53
-64 -126 -39 -29 10 -56 15 -60 12 -9 -10 -32 25 -33 50 0 12 -4 24 -9 27 -5
3 -12 22 -15 41 -4 19 -11 35 -17 35 -6 0 -7 5 -4 10 4 6 2 16 -3 23 -5 7 -15
30 -22 52 -7 22 -21 55 -32 73 -10 18 -19 48 -21 67 -1 19 -5 35 -9 35 -3 0
-10 15 -13 33 -4 17 -14 41 -21 52 -8 11 -14 26 -14 35 0 9 -9 33 -20 55 -11
22 -20 44 -20 51 0 29 -31 40 -135 48 -27 2 -62 7 -77 11 -20 5 -28 3 -28 -5
0 -9 -10 -10 -32 -5 -38 8 -136 14 -141 9z m208 -880 c28 -1 60 -2 72 -3 23
-1 29 -14 68 -146 13 -44 29 -93 36 -110 7 -16 11 -35 10 -42 -1 -6 3 -14 9
-18 5 -3 10 -17 10 -31 0 -14 5 -35 11 -47 7 -12 13 -28 13 -37 1 -8 10 -43
21 -77 19 -60 37 -79 48 -49 4 11 11 311 8 381 -6 166 -11 159 118 152 106 -6
144 -11 160 -21 5 -3 9 -128 11 -278 1 -150 2 -282 2 -293 0 -11 0 -90 -1
-175 -1 -85 -1 -231 0 -325 0 -93 0 -200 0 -237 l-1 -66 -39 -7 c-22 -3 -55
-2 -75 4 -27 7 -40 6 -48 -3 -10 -10 -20 -10 -55 0 -26 8 -45 9 -48 3 -20 -31
-46 10 -61 96 -3 22 -10 45 -14 50 -9 13 -32 92 -64 215 -13 52 -31 120 -41
150 -9 30 -19 61 -21 69 -3 11 -7 11 -19 1 -10 -9 -15 -29 -14 -64 1 -28 1
-112 0 -186 -1 -74 1 -152 4 -173 3 -21 2 -44 -2 -50 -4 -6 -6 -31 -4 -54 l3
-43 -89 4 c-48 2 -96 7 -105 11 -11 4 -18 3 -18 -5 0 -15 -49 -5 -68 14 -9 9
-13 65 -14 214 -1 111 1 204 4 207 3 3 2 24 -2 46 -4 22 -4 57 1 77 4 20 5 40
2 46 -8 13 -11 653 -4 736 l6 65 48 1 c26 0 50 4 54 8 4 4 14 3 22 0 9 -4 39
-8 66 -10z m-1074 -294 c56 -18 129 -67 129 -87 0 -4 13 -21 29 -38 16 -16 45
-61 64 -100 74 -144 97 -257 56 -270 -10 -4 -19 -15 -19 -26 0 -10 -5 -19 -11
-19 -16 0 -6 -35 11 -35 80 -2 199 -68 200 -112 0 -6 11 -25 25 -41 14 -17 25
-34 25 -38 0 -5 7 -22 16 -39 9 -16 36 -70 61 -120 25 -49 49 -97 53 -105 52
-93 69 -132 64 -144 -6 -15 -40 -29 -62 -27 -7 1 -15 -5 -18 -14 -3 -8 -11
-15 -17 -15 -6 0 -43 -15 -81 -34 -109 -52 -111 -52 -131 3 -10 25 -23 52 -29
60 -13 16 -32 49 -45 77 -42 93 -105 217 -114 227 -7 6 -21 29 -32 50 -11 20
-23 37 -27 37 -5 0 -8 6 -8 14 0 20 -58 42 -73 27 -6 -6 -19 -11 -28 -11 -22
0 -19 -39 7 -77 30 -45 40 -63 85 -153 24 -47 46 -86 51 -88 4 -2 8 -10 8 -18
0 -8 5 -14 10 -14 6 0 10 -11 10 -24 0 -13 7 -29 15 -36 8 -7 15 -21 15 -31 0
-10 4 -21 10 -24 18 -11 68 -125 55 -125 -7 0 -15 -7 -19 -15 -3 -8 -12 -12
-21 -9 -8 4 -17 -1 -21 -10 -3 -9 -10 -13 -15 -10 -5 3 -9 2 -9 -3 0 -4 -15
-14 -32 -21 -18 -7 -40 -18 -48 -23 -8 -5 -27 -14 -42 -20 -16 -6 -28 -15 -28
-20 0 -5 -11 -9 -25 -9 -14 0 -25 -5 -25 -10 0 -27 -53 47 -97 136 -27 55 -55
110 -63 124 -7 14 -17 32 -21 40 -5 8 -21 40 -36 70 -15 30 -30 57 -33 60 -3
3 -10 14 -16 25 -6 11 -23 43 -39 70 -54 98 -81 150 -95 185 -7 19 -23 49 -35
65 -24 34 -55 98 -55 114 0 6 -4 11 -8 11 -4 0 -23 33 -42 73 -18 39 -44 86
-56 102 -12 17 -26 43 -30 58 -3 16 -13 31 -20 34 -8 3 -12 8 -9 12 2 4 -5 24
-15 44 -11 20 -20 43 -20 51 0 7 28 28 63 45 34 18 69 36 77 41 25 14 140 62
147 61 2 0 75 38 128 66 24 13 153 51 176 52 9 1 45 -8 80 -19z m2471 -39 c69
-33 130 -66 137 -74 12 -15 7 -60 -9 -82 -4 -5 -15 -35 -25 -65 -10 -30 -21
-59 -26 -64 -5 -6 -9 -18 -9 -27 0 -9 -13 -43 -30 -74 -16 -31 -30 -64 -30
-72 0 -8 -9 -32 -19 -52 -24 -46 -81 -196 -81 -213 0 -7 -9 -26 -20 -43 -11
-16 -31 -66 -45 -110 -15 -44 -37 -105 -51 -135 -42 -91 -55 -129 -58 -168 -1
-7 -5 -16 -11 -20 -15 -11 -45 -71 -45 -92 0 -35 -25 -42 -64 -19 -20 11 -36
17 -36 12 0 -4 -5 0 -11 10 -5 9 -17 17 -26 17 -25 0 -172 73 -178 89 -5 14
25 109 51 159 8 15 14 33 14 39 0 11 27 77 51 125 5 10 9 25 9 33 0 8 5 15 10
15 6 0 10 8 10 18 0 10 4 22 9 27 5 6 16 33 24 60 20 65 44 133 62 170 7 17
25 67 40 113 15 45 31 82 36 82 5 0 9 9 9 20 0 11 5 20 10 20 6 0 10 9 10 21
0 19 25 80 74 179 12 25 29 66 36 93 8 26 18 47 23 47 4 0 5 5 2 10 -15 24 41
6 157 -49z m658 -389 c0 -4 23 -25 50 -47 28 -22 50 -43 50 -48 0 -5 25 -33
55 -62 30 -30 55 -58 55 -63 0 -5 -11 -19 -25 -32 -14 -13 -25 -29 -25 -35 0
-16 -44 -102 -63 -123 -8 -9 -19 -35 -23 -56 -9 -49 -1 -47 86 21 34 26 69 53
79 58 9 6 31 20 49 33 l32 23 35 -28 c19 -15 35 -31 35 -35 0 -6 19 -26 93
-95 9 -9 17 -22 17 -30 0 -17 -57 -74 -92 -92 -15 -8 -36 -22 -45 -30 -10 -9
-63 -50 -118 -90 -55 -41 -102 -78 -103 -83 -2 -4 -7 -6 -11 -4 -4 3 -22 -11
-40 -29 -18 -19 -37 -35 -42 -35 -5 0 -9 -8 -9 -18 0 -11 -13 -37 -28 -58 -16
-22 -32 -53 -36 -69 -4 -17 -18 -43 -30 -60 -13 -16 -26 -43 -30 -60 -4 -16
-16 -35 -27 -43 -10 -7 -19 -21 -19 -30 0 -10 -9 -33 -20 -52 -11 -19 -29 -53
-40 -75 -12 -22 -32 -58 -45 -80 -14 -22 -25 -50 -25 -62 0 -28 -34 -39 -63
-20 -33 22 -67 56 -67 67 0 6 -7 10 -16 10 -9 0 -18 8 -21 18 -3 9 -24 33 -47
52 -38 31 -42 38 -35 64 5 16 14 36 22 45 7 9 24 40 37 69 13 28 27 52 32 52
4 0 8 5 8 11 0 6 13 29 28 52 32 48 65 128 56 136 -4 3 -9 1 -11 -6 -2 -7 -11
-9 -19 -6 -7 3 -17 -2 -20 -11 -3 -9 -12 -16 -20 -16 -8 0 -14 -7 -14 -15 0
-8 -5 -15 -11 -15 -7 0 -22 -10 -35 -22 -49 -49 -72 -66 -90 -70 -10 -2 -24
-14 -31 -27 -23 -47 -113 -67 -113 -26 0 8 -5 15 -10 15 -14 0 -180 166 -180
180 0 14 25 40 39 40 5 0 18 11 29 25 11 14 24 25 29 25 4 0 43 28 84 63 133
109 196 157 205 157 5 0 38 27 73 60 35 33 68 60 73 60 14 0 42 34 60 73 10
20 22 37 26 37 5 0 14 18 21 40 6 22 15 40 19 40 4 0 18 22 31 49 13 28 32 58
42 67 11 9 19 25 19 36 0 10 5 18 10 18 6 0 10 6 10 14 0 7 6 19 14 25 7 6 16
24 19 39 8 39 77 115 77 84z m-4370 -452 c13 0 99 -58 133 -89 31 -28 29 -48
-9 -86 -13 -13 -24 -29 -24 -36 0 -6 -11 -24 -25 -41 -27 -32 -33 -71 -12 -88
22 -19 116 -80 123 -80 3 0 19 -11 36 -25 23 -20 33 -23 49 -15 10 6 19 14 19
18 0 4 16 25 35 47 20 22 38 47 40 57 10 30 54 31 94 4 21 -15 41 -26 47 -26
5 -1 31 -20 57 -44 l48 -43 -16 -34 c-31 -67 -48 -94 -72 -120 l-24 -26 29
-33 c17 -18 35 -30 40 -26 5 3 17 -6 27 -20 10 -15 22 -23 31 -20 8 3 14 -1
14 -9 0 -8 5 -15 11 -15 5 0 27 -11 47 -25 37 -25 82 -33 82 -15 0 6 7 10 16
10 11 0 14 6 9 21 -5 13 -3 19 3 15 5 -3 22 13 38 37 16 23 32 44 37 45 4 2 7
10 7 17 0 15 28 29 50 26 8 -2 24 -11 36 -22 11 -10 25 -19 30 -19 5 0 24 -13
41 -29 18 -16 46 -35 63 -42 29 -13 31 -17 26 -48 -3 -19 -14 -42 -26 -53 -11
-10 -20 -25 -20 -33 0 -7 -11 -22 -25 -33 -14 -11 -25 -26 -25 -34 0 -8 -9
-25 -20 -38 -12 -14 -18 -31 -14 -42 3 -10 0 -18 -6 -18 -7 0 -9 -7 -6 -16 4
-12 2 -15 -9 -10 -17 6 -61 -37 -71 -69 -4 -11 -10 -22 -13 -25 -21 -16 -41
-63 -35 -82 5 -16 3 -20 -9 -15 -9 3 -21 -1 -27 -9 -10 -11 -9 -14 3 -14 9 0
19 -5 23 -12 5 -8 -2 -9 -27 -4 -19 5 -45 9 -59 11 -24 3 -24 3 -6 -11 18 -12
18 -14 3 -14 -10 0 -20 7 -23 15 -4 8 -17 15 -30 15 -14 0 -24 6 -24 14 0 10
7 12 23 8 22 -5 22 -5 3 16 -11 12 -25 22 -32 22 -7 0 -19 9 -26 19 -7 10 -29
26 -48 35 -36 17 -88 51 -128 86 -13 11 -32 20 -43 20 -10 0 -19 7 -19 15 0 8
-15 21 -34 29 -19 8 -38 20 -42 28 -5 8 -26 22 -46 32 -21 9 -38 21 -38 27 0
6 -16 17 -35 25 -20 8 -38 21 -41 28 -3 8 -19 20 -35 26 -16 7 -29 16 -29 21
0 5 -22 20 -50 34 -27 14 -50 30 -50 35 0 6 -6 10 -14 10 -20 0 -67 26 -65 36
1 5 -15 17 -35 27 -20 9 -36 21 -36 26 0 5 -15 14 -32 20 -18 6 -46 24 -61 41
-16 16 -33 30 -37 30 -10 0 -80 47 -124 83 l-30 24 18 34 c17 34 36 61 89 130
15 20 27 40 27 46 0 5 9 18 19 27 11 10 22 28 25 42 4 13 13 24 20 24 8 0 16
8 20 18 10 29 41 73 100 139 l39 44 24 -25 c13 -15 28 -26 33 -26z m5233 -842
c28 -12 68 -39 88 -60 44 -46 116 -186 106 -209 -1 -3 4 -13 11 -22 9 -10 14
-51 15 -119 1 -94 -1 -109 -28 -171 -16 -37 -33 -67 -38 -67 -5 0 -17 -10 -27
-23 -10 -13 -35 -32 -57 -42 -21 -11 -40 -22 -43 -25 -3 -3 -25 -14 -50 -24
-25 -10 -67 -28 -95 -40 -27 -12 -69 -28 -92 -36 -24 -7 -43 -17 -43 -23 0 -5
-7 -7 -15 -3 -8 3 -31 -3 -49 -14 -19 -10 -37 -16 -41 -12 -3 3 -9 2 -13 -3
-4 -6 -34 -19 -67 -30 -33 -10 -69 -24 -80 -31 -11 -6 -41 -15 -67 -19 -27 -3
-48 -10 -48 -14 0 -12 -142 -5 -170 8 -47 22 -93 61 -131 113 -22 28 -39 55
-39 59 0 4 -6 14 -13 21 -47 49 -72 282 -40 373 13 35 23 49 34 47 12 -2 15 4
11 23 -2 15 0 25 7 25 6 0 11 5 11 10 0 19 54 59 103 77 26 9 47 20 47 24 0 4
15 11 33 14 17 4 37 11 42 14 6 4 33 16 60 26 28 10 55 21 60 25 6 4 26 11 45
15 19 4 40 11 46 17 7 5 16 8 20 7 5 -2 27 6 49 16 56 25 74 32 120 45 22 6
49 16 60 21 74 34 207 37 278 7z m-3188 2 c3 -5 1 -10 -6 -10 -6 0 -19 -8 -28
-18 -9 -10 -23 -21 -33 -25 -21 -7 -81 -94 -73 -106 3 -5 1 -12 -5 -16 -5 -3
-10 -17 -10 -31 0 -13 -4 -24 -9 -24 -26 0 -19 -263 9 -325 5 -11 11 -41 15
-67 3 -27 10 -48 16 -48 5 0 8 -3 7 -7 -4 -15 15 -77 33 -109 10 -18 21 -48
24 -68 4 -19 13 -40 21 -47 8 -6 14 -18 14 -26 0 -8 20 -52 45 -99 25 -46 45
-91 45 -99 0 -8 5 -15 10 -15 6 0 10 -7 10 -15 0 -9 9 -25 20 -37 11 -12 19
-27 18 -32 -2 -18 19 -60 40 -79 11 -10 23 -31 27 -45 4 -15 17 -41 31 -59 13
-17 24 -37 24 -43 0 -6 6 -13 14 -16 8 -3 12 -12 9 -20 -3 -8 0 -14 6 -14 6 0
20 -20 32 -44 11 -25 33 -58 47 -73 14 -15 26 -33 27 -38 0 -6 6 -17 13 -25
22 -27 62 -91 62 -100 0 -6 5 -10 10 -10 6 0 16 -13 23 -28 7 -15 18 -34 25
-42 6 -8 39 -53 71 -100 33 -47 79 -112 103 -145 23 -33 42 -63 41 -67 -1 -3
13 -20 32 -37 19 -17 35 -34 35 -39 0 -7 89 -133 120 -169 5 -7 10 -17 10 -22
0 -5 11 -18 25 -29 14 -11 25 -25 25 -30 0 -6 6 -15 13 -19 7 -4 21 -21 31
-38 11 -16 33 -43 50 -60 17 -16 30 -31 29 -32 -8 -9 1 -25 37 -64 22 -24 40
-47 40 -51 0 -4 18 -26 40 -49 22 -23 40 -46 40 -50 0 -5 18 -27 40 -51 22
-24 40 -46 40 -49 0 -3 10 -17 21 -30 12 -13 48 -60 80 -104 32 -44 67 -92 79
-107 11 -14 20 -29 20 -32 0 -13 -24 -5 -44 14 -25 23 -88 82 -175 163 -35 31
-67 57 -72 57 -5 0 -9 7 -9 15 0 8 -9 20 -20 27 -11 7 -20 16 -20 20 0 11 -74
84 -91 90 -8 3 -31 -3 -51 -14 -21 -10 -38 -16 -38 -13 0 3 -17 -4 -37 -15
-21 -11 -46 -20 -55 -20 -10 0 -18 -5 -18 -11 0 -6 -7 -8 -16 -5 -8 3 -23 2
-33 -3 -15 -8 -23 2 -55 70 -35 74 -48 86 -81 79 -16 -3 -46 -8 -95 -16 -25
-4 -50 -11 -56 -16 -7 -5 -22 -5 -36 1 -15 6 -31 5 -41 -1 -10 -5 -26 -6 -37
-3 -11 4 -44 3 -73 0 l-53 -7 -22 -86 c-30 -116 -38 -124 -106 -103 -17 6 -58
17 -91 26 -139 37 -194 57 -199 71 -6 16 12 113 24 129 21 29 19 60 -7 87 -15
16 -32 28 -38 28 -17 0 -105 58 -145 96 -27 26 -43 33 -68 31 -17 -1 -32 -5
-32 -9 0 -5 -9 -8 -20 -8 -17 0 -81 -24 -130 -49 -19 -10 -64 5 -55 18 5 9
-14 56 -76 188 -16 34 -29 68 -29 75 0 8 -5 19 -11 25 -14 14 -8 58 8 58 6 0
15 3 19 8 4 4 16 7 26 7 10 0 18 5 18 10 0 6 8 10 19 10 27 0 75 27 62 35 -6
3 -11 16 -11 28 0 18 -2 19 -10 7 -7 -11 -12 -12 -21 -3 -9 9 -8 16 5 28 9 9
16 22 16 28 0 7 -7 4 -14 -5 -7 -10 -16 -15 -19 -12 -9 9 4 34 17 34 8 0 10
21 6 73 -3 39 -3 92 1 117 9 57 -1 75 -48 90 -66 21 -93 35 -93 47 0 7 -4 13
-10 13 -5 0 -10 7 -10 15 0 18 17 20 22 4 2 -7 4 3 4 22 0 19 7 50 16 69 13
29 41 115 72 226 6 20 10 21 49 12 23 -5 71 -18 107 -29 l65 -20 15 23 c27 44
180 186 235 219 30 18 55 37 55 41 0 4 -14 33 -30 64 -17 30 -37 72 -44 92 -8
21 -31 80 -51 132 -20 52 -37 100 -38 105 -2 6 -7 17 -12 25 -5 8 -8 25 -6 38
1 13 -2 28 -7 35 -11 15 -28 81 -42 162 -21 127 11 326 60 370 11 10 20 24 20
31 0 7 14 21 30 31 17 9 30 21 30 26 0 4 8 8 18 7 24 -3 62 11 62 21 0 5 11 7
24 3 13 -3 27 -1 30 5 9 14 23 14 31 1z m-2637 -139 c32 -16 126 -49 232 -81
58 -18 114 -36 125 -40 21 -9 143 -45 207 -61 32 -8 126 -39 168 -57 8 -3 20
-6 25 -7 29 -4 81 -18 90 -25 6 -5 29 -13 53 -20 24 -6 50 -14 58 -17 9 -3 14
2 15 18 1 21 2 21 6 4 9 -35 23 -46 45 -34 15 8 19 8 14 0 -8 -12 56 -43 111
-55 41 -9 108 -74 130 -126 11 -25 23 -38 31 -35 16 6 52 -16 52 -32 0 -7 -12
-13 -26 -13 -21 0 -25 -4 -21 -20 3 -11 2 -20 -3 -20 -12 0 -20 28 -13 47 4
11 3 14 -6 9 -16 -10 -6 -53 17 -80 9 -11 11 -16 4 -12 -17 10 -42 -12 -42
-37 0 -21 -10 -55 -38 -137 -21 -58 -19 -108 5 -126 10 -7 14 -14 8 -14 -5 0
-3 -5 5 -10 13 -8 12 -10 -4 -10 -12 0 -16 5 -13 14 4 10 1 13 -9 9 -10 -4
-14 2 -14 22 0 24 -3 27 -25 23 -13 -3 -23 -1 -22 5 1 6 -16 14 -38 19 -22 4
-49 12 -60 17 -103 44 -94 35 -90 90 4 50 -9 75 -34 69 -6 -2 -17 8 -24 21 -9
19 -30 30 -92 47 -141 40 -358 103 -421 124 -34 11 -68 20 -75 20 -8 0 -25 9
-39 20 -14 11 -40 20 -57 20 -18 0 -33 4 -33 9 0 8 -35 20 -255 86 -106 32
-122 43 -106 74 7 12 9 26 6 31 -3 5 -1 11 5 15 5 3 10 14 10 23 0 9 7 30 15
46 9 16 13 31 10 34 -3 3 0 11 6 18 6 8 9 20 6 29 -4 8 -2 17 2 19 5 3 11 19
14 35 10 51 45 72 85 52z m3191 -72 c58 -12 121 -30 139 -40 18 -11 39 -19 45
-19 17 -1 52 -29 45 -36 -3 -3 -25 0 -47 6 -23 6 -47 8 -53 4 -6 -4 -36 -8
-66 -10 -30 -1 -58 -7 -61 -13 -4 -5 -22 -12 -41 -14 -46 -4 -186 -101 -207
-142 -5 -11 -21 -40 -35 -65 -35 -61 -60 -143 -64 -210 -2 -30 -6 -86 -9 -125
-2 -38 -5 -74 -5 -80 0 -27 -29 39 -43 100 -26 111 -51 321 -41 337 3 5 7 30
9 56 4 69 48 154 103 200 87 73 166 85 331 51z m400 -595 c81 -25 151 -51 157
-57 12 -13 -6 -115 -31 -171 -12 -26 -11 -33 6 -55 11 -14 34 -31 51 -38 17
-8 38 -22 45 -33 8 -11 23 -20 35 -20 11 0 22 -8 25 -19 2 -10 16 -24 29 -30
13 -6 24 -15 24 -20 0 -5 16 -16 35 -25 32 -16 37 -15 77 2 24 11 55 24 71 30
15 7 27 16 27 21 0 5 8 7 18 4 18 -4 30 -28 84 -158 16 -38 38 -88 48 -111 27
-55 25 -72 -7 -80 -16 -4 -30 -10 -33 -13 -3 -3 -26 -16 -52 -29 -39 -19 -46
-27 -40 -40 12 -24 16 -87 14 -229 l-1 -123 69 -21 c46 -14 70 -26 73 -39 4
-17 -9 -78 -37 -170 -8 -25 -21 -71 -31 -102 -9 -31 -22 -61 -29 -67 -14 -12
-103 9 -154 36 l-33 18 -82 -88 c-79 -84 -169 -157 -194 -157 -13 0 -73 60
-73 73 0 4 -9 17 -20 29 -11 12 -20 28 -20 35 0 7 -7 13 -15 13 -8 0 -15 9
-15 19 0 10 -7 21 -15 25 -30 11 -18 60 25 96 22 18 40 40 40 47 0 7 7 13 15
13 8 0 21 12 29 28 8 15 23 36 35 46 12 11 21 24 21 31 0 6 13 36 29 66 24 44
32 73 39 154 5 56 5 104 1 110 -5 5 -9 24 -9 41 0 18 -5 36 -10 39 -6 4 -8 10
-5 15 6 10 -54 143 -67 148 -4 2 -8 10 -8 17 0 8 -9 19 -20 25 -11 6 -20 15
-20 20 0 14 -47 58 -70 65 -11 3 -20 11 -20 16 0 5 -20 18 -44 29 -25 10 -53
27 -64 38 -22 22 -176 63 -212 56 -14 -3 -43 -1 -65 4 -38 8 -109 4 -216 -13
l-46 -7 -26 44 c-14 25 -29 58 -33 74 -4 16 -14 43 -22 59 -8 17 -18 44 -22
60 -4 17 -11 38 -15 48 -6 14 -2 17 21 16 16 0 65 6 109 15 78 16 180 25 319
29 l70 2 16 75 c29 130 29 130 52 130 12 0 87 -21 167 -46z m-2315 -180 c-22
-9 32 -174 57 -174 17 0 50 -41 43 -52 -4 -6 -10 -6 -16 0 -6 6 -17 8 -24 5
-16 -6 -19 -43 -4 -43 6 0 10 -8 11 -17 0 -14 2 -15 6 -3 15 36 30 39 52 12
11 -14 21 -34 21 -44 0 -19 29 -38 57 -37 12 0 6 6 -14 15 -33 14 -44 34 -20
34 7 1 4 6 -7 15 -10 7 -15 18 -12 24 7 10 76 -50 76 -66 0 -5 9 -9 20 -9 18
0 18 2 3 18 -23 25 -10 33 21 13 28 -19 35 -45 11 -45 -8 0 -15 -4 -15 -9 0
-5 -13 -11 -30 -14 -20 -5 -30 -12 -30 -24 1 -17 2 -17 15 1 10 13 21 17 40
12 17 -4 24 -3 20 4 -3 5 -1 10 5 10 7 0 9 -7 6 -16 -8 -21 4 -40 14 -23 7 10
11 10 24 0 14 -12 16 -8 16 32 0 33 4 45 13 42 12 -5 22 -125 10 -125 -4 0
-15 7 -25 17 -10 9 -18 11 -18 5 0 -7 17 -27 38 -46 30 -29 33 -34 15 -29 -13
3 -23 9 -23 13 0 15 -39 18 -51 4 -7 -8 -18 -13 -26 -10 -17 7 -17 1 3 -30 12
-18 22 -23 37 -18 15 5 19 3 15 -8 -4 -9 1 -14 14 -15 14 -1 17 2 10 10 -11
14 -12 47 -1 47 4 0 11 -4 14 -10 3 -5 1 -10 -5 -10 -7 0 -8 -6 -1 -19 8 -14
6 -24 -9 -41 -23 -27 -26 -38 -6 -21 11 9 20 9 34 2 22 -12 33 -5 25 15 -8 21
10 17 25 -6 11 -17 10 -20 -7 -20 -10 0 -22 -7 -25 -15 -3 -9 -12 -15 -20 -13
-8 2 -14 -1 -13 -7 1 -5 10 -9 19 -8 10 2 17 -1 16 -5 -3 -14 22 -62 32 -62 5
0 10 5 10 10 0 6 -4 10 -10 10 -5 0 -10 4 -10 8 0 5 15 8 34 8 22 -1 31 -5 25
-10 -5 -6 -9 -17 -9 -25 1 -14 3 -13 14 1 13 18 26 14 26 -8 0 -16 -28 -22
-62 -13 -19 5 -28 3 -32 -7 -3 -8 -1 -14 4 -14 5 0 7 -6 4 -13 -6 -18 22 -42
31 -27 3 5 1 10 -4 10 -6 0 -11 7 -11 15 0 8 7 15 15 15 23 0 20 -63 -4 -84
-11 -10 -25 -15 -32 -10 -8 5 -10 3 -4 -5 4 -7 16 -11 26 -8 12 3 23 -2 29
-14 6 -11 21 -19 35 -19 14 0 25 -5 25 -11 0 -6 -9 -8 -20 -4 -11 4 -20 2 -20
-4 0 -6 4 -11 8 -11 4 0 9 -10 9 -22 1 -13 7 -24 13 -26 16 -6 1 -22 -21 -22
-10 0 -19 -4 -19 -10 0 -5 7 -10 15 -10 8 0 15 -4 15 -10 0 -5 -6 -10 -12 -10
-7 0 -22 -28 -32 -63 -11 -34 -23 -64 -26 -67 -4 -3 -10 -15 -14 -26 -5 -16
-2 -23 14 -27 11 -3 20 -10 20 -16 0 -14 -17 -14 -25 -1 -3 6 -15 10 -27 10
-14 0 -18 5 -14 15 3 9 0 15 -10 15 -11 0 -13 -7 -8 -27 6 -22 4 -25 -9 -20
-11 4 -21 -1 -28 -16 -9 -18 -9 -20 2 -9 7 6 21 12 31 12 10 0 18 -6 18 -12 0
-7 3 -24 7 -37 5 -21 4 -22 -16 -12 -18 10 -23 9 -33 -13 -6 -14 -15 -23 -19
-20 -19 12 -45 11 -56 -1 -10 -11 -9 -15 7 -20 17 -5 29 -25 16 -25 -2 0 -12
-3 -22 -7 -12 -4 -15 -3 -10 5 10 16 -5 15 -27 -2 -12 -9 -14 -16 -7 -21 5 -3
8 -11 5 -16 -5 -8 33 -14 58 -10 5 1 6 -3 2 -9 -3 -5 -15 -10 -27 -10 -17 0
-18 -2 -8 -15 9 -11 16 -13 24 -5 5 5 17 10 25 10 11 0 11 -3 -3 -19 -10 -10
-14 -26 -10 -37 5 -18 5 -18 -9 -1 -17 21 -27 22 -27 3 0 -8 -7 -17 -16 -20
-12 -5 -15 0 -12 22 2 15 8 26 16 25 6 -2 12 2 12 7 0 6 -5 10 -10 10 -6 0
-19 14 -30 32 -15 25 -21 28 -25 16 -3 -8 -23 -24 -43 -34 -76 -39 -108 -94
-55 -94 14 0 23 -3 20 -7 -4 -3 -2 -13 5 -20 10 -12 6 -14 -28 -9 -34 6 -36 5
-16 -5 29 -16 28 -29 -3 -29 -18 0 -25 5 -25 19 0 14 -5 18 -20 14 -11 -3 -20
0 -20 6 0 6 4 11 10 11 5 0 13 18 16 40 4 23 12 40 20 40 7 0 15 3 17 8 3 4
-5 7 -18 7 -13 0 -21 -3 -18 -7 2 -5 0 -8 -5 -8 -6 0 -8 -10 -5 -22 4 -22 4
-23 -11 -4 -9 11 -16 15 -16 10 0 -5 -12 -10 -27 -9 -20 0 -28 5 -27 18 1 10
-5 17 -17 17 -12 0 -16 -5 -13 -15 4 -8 1 -15 -5 -15 -6 0 -11 5 -11 10 0 6
-9 10 -20 10 -28 0 -25 25 6 39 32 14 26 35 -12 39 -28 2 -28 2 -9 -14 19 -16
19 -16 -7 -12 -16 3 -28 1 -28 -4 0 -5 -7 -2 -16 7 -9 8 -24 13 -34 10 -10 -3
-23 2 -31 12 -9 11 -10 14 -1 9 25 -15 24 23 -2 51 -14 15 -26 35 -26 45 0 9
-4 19 -8 22 -4 2 -8 -10 -8 -29 0 -19 4 -31 10 -28 5 4 7 -3 4 -15 -4 -12 -2
-22 3 -22 5 0 9 -7 9 -16 0 -11 -5 -14 -16 -10 -26 10 -73 50 -73 63 -1 14
-45 28 -59 19 -6 -3 -5 5 1 19 10 20 17 24 36 20 20 -5 22 -4 13 8 -7 8 -9 17
-5 20 3 4 1 7 -5 7 -6 0 -9 7 -6 15 4 8 10 12 15 9 24 -14 5 39 -22 66 -18 16
-33 30 -34 30 -1 0 -1 -10 0 -22 1 -13 9 -24 18 -26 9 -2 17 -10 17 -17 0 -11
-7 -12 -32 -4 -18 5 -34 9 -35 9 -2 0 -3 9 -3 19 0 13 -11 24 -35 32 -21 8
-35 20 -35 30 0 9 -7 30 -15 45 -8 16 -15 24 -15 18 0 -7 -6 -14 -14 -17 -9
-4 -12 0 -9 13 3 12 -3 22 -16 29 -12 7 -21 9 -21 5 0 -3 -6 -1 -13 5 -8 6
-17 8 -20 4 -4 -3 -7 -2 -7 4 0 19 43 23 57 5 13 -15 13 -15 4 5 -18 36 -14
46 15 39 14 -4 23 -3 20 2 -2 4 15 8 39 7 24 0 41 3 38 8 -3 4 -10 6 -16 4
-22 -8 -45 12 -40 33 3 11 9 20 15 20 5 0 4 9 -2 20 -7 14 -7 20 0 20 5 0 10
9 10 19 0 11 7 27 16 36 13 12 14 19 5 28 -6 6 -11 8 -11 4 0 -4 -9 -3 -19 3
-13 7 -22 7 -26 0 -3 -5 3 -10 15 -10 15 0 20 -5 18 -17 -2 -10 -12 -17 -21
-17 -13 2 -16 -3 -11 -18 4 -13 2 -18 -4 -14 -6 4 -15 -1 -20 -11 -8 -13 -6
-21 6 -30 11 -8 12 -12 5 -13 -7 0 -18 9 -25 20 -15 23 -30 27 -22 5 7 -17 3
-18 -20 -9 -9 3 -16 10 -16 16 0 5 4 7 9 4 14 -9 3 96 -11 107 -9 6 -8 7 5 3
19 -6 47 2 47 14 0 5 -8 6 -19 3 -10 -3 -22 0 -25 6 -4 6 -16 11 -27 11 -10 0
-19 6 -19 14 0 20 18 30 33 17 20 -16 69 -22 64 -8 -2 7 -11 11 -21 9 -9 -2
-16 2 -16 8 0 5 -6 10 -13 10 -7 0 -18 9 -25 20 -7 11 -8 20 -3 20 5 0 11 -5
13 -12 3 -7 14 -9 31 -4 15 3 25 11 22 16 -3 6 1 10 10 10 11 0 13 4 8 13 -15
23 -9 67 10 73 13 4 17 12 14 25 -3 10 -1 19 4 19 4 0 6 7 2 16 -3 9 3 23 15
35 23 21 37 25 26 7 -4 -7 -3 -8 5 -4 6 4 9 12 6 17 -10 15 -29 10 -43 -11
-14 -24 -30 -26 -38 -5 -7 17 16 43 34 37 15 -5 16 10 0 26 -9 9 -9 12 0 12 7
0 12 -4 12 -10 0 -5 7 -10 15 -10 8 0 15 -5 15 -11 0 -6 8 -8 19 -4 11 3 22 1
26 -5 3 -5 -1 -10 -10 -10 -12 0 -14 -8 -11 -35 3 -19 0 -37 -5 -41 -15 -9 0
-24 17 -17 9 3 19 1 23 -5 4 -7 12 -8 21 -2 13 8 12 10 -2 10 -22 0 -33 36
-16 55 7 8 19 21 26 29 14 18 45 9 38 -10 -3 -8 -2 -14 2 -15 4 0 15 -2 25 -4
9 -2 17 1 17 6 0 5 -6 9 -14 9 -23 0 -27 29 -6 40 28 15 38 12 51 -12 10 -18
9 -20 -5 -15 -9 4 -16 2 -16 -3 0 -17 34 -17 78 -1 47 19 43 42 -8 36 -44 -6
-46 -3 -26 38 15 28 9 36 -12 15 -9 -9 -12 -7 -12 9 0 18 6 21 30 21 32 -1 41
-22 13 -32 -15 -6 -15 -8 0 -23 25 -25 46 -2 38 40 -6 25 -12 32 -29 31 -16 0
-19 3 -12 10 19 19 41 15 52 -10 l11 -24 32 20 c18 11 40 17 49 14 9 -3 16 -1
16 4 0 6 -9 13 -19 17 -24 7 -36 35 -16 35 8 0 15 -7 15 -15 0 -8 4 -15 9 -15
5 0 7 9 4 20 -6 21 3 25 26 11 8 -5 10 -14 5 -22 -6 -11 -5 -11 9 0 10 8 20
11 24 7 3 -3 1 -6 -5 -6 -16 0 -15 -17 1 -23 8 -3 14 5 15 21 2 23 16 41 33
42 3 0 11 -10 17 -22 10 -22 11 -21 11 10 1 17 6 32 11 32 18 0 10 25 -16 50
-32 30 -45 61 -32 78 8 9 6 12 -6 12 -10 0 -16 8 -16 23 0 25 17 48 35 46 6 0
6 -2 -1 -5z m-1145 -205 c17 -6 31 -18 31 -26 0 -9 11 -26 25 -39 32 -30 32
-41 0 -20 -24 16 -25 16 -24 -6 0 -13 -2 -60 -7 -105 -5 -60 -4 -83 5 -83 6 0
11 -7 11 -15 0 -8 -6 -12 -14 -9 -11 4 -14 -9 -13 -70 1 -41 5 -70 9 -63 4 7
5 -18 2 -55 -5 -61 -4 -68 12 -68 13 0 15 3 7 11 -5 5 -8 21 -5 35 l4 25 13
-24 c7 -14 11 -37 9 -52 -1 -15 3 -34 11 -41 8 -8 11 -23 7 -36 -7 -23 -7 -23
-10 2 -2 14 -12 31 -22 38 -19 11 -20 9 -20 -28 0 -31 5 -42 19 -48 11 -4 20
-11 20 -17 0 -5 5 -11 12 -14 8 -2 10 2 6 13 -7 19 7 38 35 49 14 5 16 13 12
37 -4 16 -3 31 2 31 50 7 64 7 64 0 0 -15 -23 -29 -39 -24 -14 4 -14 3 -1 -6
8 -6 23 -8 33 -5 11 3 17 0 17 -10 0 -9 -8 -16 -19 -16 -11 0 -22 -4 -25 -9
-9 -14 5 -41 20 -41 12 0 12 -4 4 -20 -6 -11 -18 -20 -26 -20 -8 0 -12 -4 -9
-10 12 -20 45 -10 55 16 8 20 15 24 31 19 16 -5 20 -3 17 6 -3 8 -11 15 -19
15 -8 1 -18 3 -24 4 -5 1 -13 2 -17 1 -5 0 -8 5 -8 12 0 7 10 13 21 14 31 3
33 8 13 52 -15 34 -23 41 -47 41 -22 0 -28 4 -25 18 2 10 12 16 24 15 15 -2
20 4 20 20 -1 16 5 21 24 22 18 0 26 6 28 23 3 16 -2 22 -15 22 -14 0 -15 -2
-4 -9 7 -5 10 -14 7 -20 -4 -6 -11 -9 -16 -6 -10 6 -6 97 4 114 11 18 26 13
26 -9 0 -11 -4 -20 -10 -20 -5 0 -10 -5 -10 -10 0 -6 8 -10 18 -8 11 2 17 -4
17 -18 0 -23 32 -60 43 -49 4 4 1 10 -6 12 -6 3 -10 9 -7 14 4 5 -2 6 -12 2
-16 -6 -16 -5 -4 10 12 15 12 20 -1 35 -23 26 -30 79 -12 86 18 7 54 -10 54
-26 0 -6 -9 -3 -20 7 -11 10 -20 13 -20 7 0 -6 5 -14 10 -17 6 -3 7 -18 4 -32
-6 -22 -4 -25 10 -20 18 7 18 8 21 -53 2 -25 5 -52 6 -60 2 -8 -1 -14 -8 -13
-14 3 -12 -13 10 -56 21 -41 21 -41 2 -41 -9 0 -15 9 -16 23 0 21 -1 21 -9 2
-7 -16 -9 -12 -11 20 l-2 40 -6 -35 c-5 -28 -3 -37 12 -44 10 -6 16 -17 14
-26 -2 -9 4 -22 15 -29 18 -11 18 -14 4 -36 -14 -22 -14 -23 10 -29 17 -5 24
-12 20 -21 -3 -8 3 -17 15 -20 10 -4 17 -11 13 -16 -3 -6 0 -16 6 -24 8 -10 9
-15 2 -15 -6 0 -10 -14 -10 -31 1 -17 -5 -34 -12 -39 -7 -4 -10 -12 -7 -17 3
-5 2 -15 -4 -23 -7 -13 -9 -12 -9 2 0 15 -2 15 -32 0 l-33 -16 38 -9 c30 -7
38 -13 34 -27 -2 -9 0 -26 6 -36 17 -30 18 -68 3 -79 -12 -9 -11 -15 5 -35
l19 -25 0 23 c0 13 -4 20 -10 17 -5 -3 -10 -1 -10 5 0 7 6 10 14 7 8 -3 16 -1
18 5 2 5 10 2 18 -8 14 -16 13 -17 -3 -11 -15 6 -17 3 -11 -16 4 -12 7 -30 6
-39 0 -12 6 -18 19 -18 11 0 19 -7 19 -16 0 -10 -6 -14 -14 -11 -8 3 -17 0
-19 -8 -6 -13 16 -15 29 -2 12 12 24 8 24 -7 0 -22 -38 -30 -63 -13 -12 8 -38
13 -58 13 -30 -1 -35 1 -31 16 2 10 8 18 13 18 5 0 9 9 9 20 0 11 5 20 10 20
6 0 10 -5 10 -11 0 -15 30 -43 37 -35 4 3 -3 15 -15 26 -12 12 -22 26 -22 31
0 6 -6 9 -14 6 -8 -3 -24 3 -37 14 -14 12 -26 16 -33 10 -8 -7 -11 5 -11 40 0
27 3 49 8 49 4 0 7 -4 7 -10 0 -5 9 -10 20 -10 11 0 20 -7 20 -15 0 -8 -6 -12
-14 -9 -8 3 -17 1 -21 -5 -3 -6 0 -11 8 -11 8 0 22 -10 31 -22 16 -23 16 -23
6 5 -9 24 -7 29 13 37 12 5 16 9 9 9 -20 1 -37 48 -23 65 20 24 -8 31 -28 7
-25 -28 -31 -26 -31 9 0 17 -4 30 -10 30 -5 0 -10 -8 -10 -17 0 -12 -5 -9 -15
11 -18 34 -18 36 -4 36 5 0 8 -4 5 -9 -3 -5 5 -8 19 -7 27 1 29 4 16 25 -5 8
-18 12 -29 9 -18 -5 -19 -3 -10 18 11 24 28 33 28 14 0 -5 10 -10 21 -10 16 0
20 5 16 20 -3 11 0 20 6 20 6 0 7 3 4 6 -4 4 -12 2 -20 -4 -20 -17 -62 8 -62
37 0 14 -6 26 -12 28 -10 4 -9 -7 1 -42 12 -40 12 -47 0 -52 -8 -3 -22 -2 -31
3 -10 4 -20 8 -23 9 -3 2 -15 6 -27 10 -13 4 -23 12 -23 17 0 5 -6 8 -12 7
-42 -7 -62 38 -35 74 10 15 12 13 11 -15 -2 -47 7 -56 21 -22 8 21 9 31 1 36
-7 5 -5 8 5 8 9 0 19 7 22 15 5 11 0 13 -26 8 -18 -3 -39 -11 -47 -17 -21 -15
-19 -74 3 -90 9 -7 17 -23 17 -34 0 -11 10 -28 22 -36 12 -9 17 -16 11 -16 -6
0 -19 7 -28 16 -20 20 -25 16 -14 -13 9 -25 87 -52 98 -35 4 7 13 6 24 -3 14
-10 15 -14 4 -24 -8 -6 -17 -8 -20 -4 -4 3 -7 0 -7 -7 0 -10 -5 -9 -18 3 -22
20 -42 22 -42 5 -1 -7 -10 -2 -22 12 -15 17 -19 19 -15 7 4 -10 7 -27 7 -38 0
-10 6 -19 14 -19 20 0 31 -21 16 -30 -12 -8 -8 -35 20 -135 6 -22 13 -49 14
-60 5 -43 25 -73 53 -80 27 -7 28 -7 6 -16 -25 -9 -30 -24 -12 -34 6 -4 8 -13
5 -21 -3 -7 -1 -16 3 -18 4 -3 21 -39 36 -81 21 -59 30 -73 40 -65 10 8 15 8
21 -1 4 -7 2 -15 -4 -17 -7 -2 -12 -10 -12 -18 0 -8 6 -11 15 -8 18 7 20 -12
3 -20 -9 -3 -8 -8 5 -16 9 -6 15 -15 12 -20 -6 -10 26 -90 36 -90 4 0 17 -21
30 -47 12 -27 33 -62 45 -78 12 -17 27 -43 33 -58 6 -16 15 -25 21 -22 6 4 10
-6 11 -22 0 -15 3 -22 6 -15 2 6 11 12 19 12 11 0 13 -7 8 -27 -6 -23 -5 -25
12 -19 15 6 16 5 7 -5 -18 -18 2 -49 27 -42 11 3 20 0 20 -6 0 -6 -7 -11 -16
-11 -8 0 -12 -4 -9 -10 3 -5 17 -10 31 -10 13 0 24 -4 24 -10 0 -5 -7 -10 -16
-10 -14 0 -14 -3 -4 -15 7 -8 19 -15 26 -15 17 0 18 -17 2 -23 -8 -3 -6 -6 5
-6 9 -1 17 -5 17 -11 0 -5 9 -10 21 -10 16 0 19 -4 14 -21 -6 -19 -4 -20 24
-14 34 7 42 -7 14 -24 -17 -10 -17 -12 0 -25 9 -7 17 -18 17 -23 0 -5 10 -18
23 -30 12 -11 32 -32 45 -47 12 -15 27 -24 32 -21 18 11 32 -5 19 -21 -11 -14
-8 -16 19 -13 4 0 6 7 4 15 -2 8 2 14 8 14 13 0 13 -16 -1 -41 -9 -17 -7 -21
10 -26 11 -3 23 -13 26 -22 9 -25 77 -73 98 -67 15 4 16 2 6 -11 -10 -12 -10
-16 2 -24 8 -5 20 -9 27 -9 6 0 12 -6 12 -12 0 -7 14 -22 30 -33 16 -11 30
-23 30 -27 0 -5 7 -8 15 -8 8 0 22 -11 31 -25 9 -14 23 -25 31 -25 8 0 24 -11
35 -25 11 -14 24 -25 29 -25 5 0 31 -16 58 -35 26 -19 65 -42 85 -50 20 -8 36
-19 36 -24 0 -4 20 -16 45 -25 25 -10 45 -21 45 -26 0 -5 23 -16 50 -25 28 -9
50 -20 50 -23 0 -7 31 -23 85 -42 17 -6 50 -21 75 -35 25 -13 66 -29 93 -35
26 -7 50 -16 53 -21 3 -5 15 -9 26 -9 12 0 29 -6 37 -13 9 -7 34 -19 56 -25
75 -22 200 -53 225 -57 14 -1 45 -8 70 -14 83 -22 390 -55 475 -52 27 1 85 2
180 2 139 0 258 9 270 19 7 6 23 10 36 10 59 1 95 6 107 13 7 5 21 5 32 2 13
-4 22 -1 25 8 4 9 16 12 35 9 17 -2 30 0 30 6 0 9 31 18 97 26 42 5 126 33
173 56 9 4 35 11 58 15 23 4 44 11 48 16 3 5 14 9 25 9 10 0 19 4 19 9 0 5 12
12 28 16 36 8 201 83 212 95 3 4 20 12 38 19 17 8 32 17 32 22 0 5 9 9 20 9
11 0 20 5 20 10 0 6 6 10 13 11 13 1 63 32 142 87 25 17 49 32 53 32 4 0 25
16 47 35 22 19 44 35 48 35 5 0 14 6 21 13 8 7 33 29 57 48 42 33 88 74 162
143 20 20 42 36 47 36 6 0 10 4 10 8 0 5 18 28 40 52 22 24 40 45 40 46 0 2
25 28 55 59 30 31 55 59 55 62 0 5 51 74 61 83 3 3 22 30 43 60 20 30 55 80
77 110 21 30 39 60 39 66 0 6 7 17 15 24 16 13 95 170 95 189 0 6 4 11 8 11 5
0 19 26 31 58 32 82 58 127 74 130 24 5 67 -17 67 -34 0 -9 -18 -53 -39 -98
-22 -44 -43 -93 -46 -108 -4 -16 -10 -28 -14 -28 -4 0 -25 -35 -46 -77 -22
-43 -47 -89 -56 -103 -9 -14 -40 -61 -68 -105 -28 -44 -57 -88 -64 -99 -15
-23 -77 -99 -86 -106 -4 -3 -22 -26 -41 -52 -18 -27 -37 -48 -42 -48 -4 0 -8
-5 -8 -12 0 -6 -17 -28 -37 -48 -21 -21 -42 -43 -48 -49 -22 -25 -144 -139
-210 -196 -39 -33 -71 -63 -73 -67 -2 -5 -10 -8 -18 -8 -8 0 -14 -4 -14 -10 0
-5 -7 -10 -15 -10 -7 0 -18 -6 -22 -13 -4 -7 -28 -28 -53 -47 -25 -19 -46 -38
-48 -42 -2 -5 -10 -8 -18 -8 -8 0 -14 -4 -14 -8 0 -5 -16 -14 -35 -22 -19 -8
-35 -17 -35 -22 0 -4 -7 -8 -15 -8 -8 0 -15 -4 -15 -10 0 -5 -9 -10 -19 -10
-11 0 -21 -4 -23 -8 -4 -9 -146 -92 -158 -92 -5 0 -33 -14 -62 -31 -29 -17
-54 -31 -55 -31 -2 1 -58 -23 -138 -57 -42 -19 -61 -24 -77 -22 -10 1 -18 -3
-18 -8 0 -6 -9 -11 -19 -11 -11 0 -23 -4 -26 -10 -3 -5 -17 -10 -31 -10 -13 0
-24 -5 -24 -11 0 -6 -9 -8 -21 -4 -12 4 -24 2 -28 -4 -4 -6 -19 -12 -34 -13
-15 -1 -27 -5 -27 -9 0 -4 -21 -10 -47 -14 -27 -4 -55 -11 -64 -16 -9 -4 -103
-20 -210 -35 -107 -14 -201 -29 -209 -32 -8 -3 -34 -4 -56 -3 -23 1 -45 -2
-48 -7 -4 -7 -18 -7 -43 0 -20 5 -47 8 -61 5 -14 -3 -89 -1 -166 5 -78 5 -169
11 -203 13 -72 4 -201 31 -443 92 -207 52 -270 71 -290 88 -8 7 -42 20 -75 30
-33 10 -67 24 -75 31 -8 7 -41 22 -72 34 -32 12 -58 25 -58 30 0 5 -15 13 -32
18 -18 5 -51 21 -72 36 -21 14 -45 26 -52 26 -7 0 -19 8 -26 19 -7 10 -23 21
-34 25 -12 4 -34 18 -48 31 -15 14 -36 25 -47 25 -10 0 -19 4 -19 8 0 5 -24
24 -52 42 -29 19 -59 42 -66 52 -7 10 -20 18 -28 18 -8 0 -24 11 -36 25 -12
14 -27 25 -34 25 -8 0 -18 9 -24 19 -5 11 -19 23 -30 26 -11 3 -20 13 -20 21
0 8 -4 14 -10 14 -10 0 -270 253 -270 262 0 14 -73 77 -83 71 -6 -4 -8 0 -4
10 6 15 -24 64 -50 80 -7 4 -13 12 -13 18 0 5 -32 53 -70 106 -39 53 -78 113
-88 132 -19 42 -30 54 -57 65 -14 5 -16 9 -7 15 9 6 9 13 -1 34 -6 15 -15 27
-19 27 -5 0 -8 8 -8 18 -1 20 -50 88 -80 109 -27 19 -27 37 0 23 20 -10 19 -8
-4 37 -23 46 -37 80 -34 86 1 1 -5 13 -12 27 -8 14 -13 31 -12 38 2 6 -1 12
-6 12 -4 0 -14 17 -21 38 -7 20 -16 46 -21 57 -8 19 -39 118 -45 140 -1 6 -5
17 -8 25 -7 17 -27 113 -31 147 -1 13 -6 26 -9 30 -4 3 -7 17 -7 30 0 12 -4
23 -10 23 -5 0 -10 12 -10 28 0 15 -4 43 -10 62 -5 19 -12 64 -15 100 -3 36
-8 79 -11 95 -8 49 -14 124 -16 228 -2 73 -6 96 -15 92 -7 -2 -13 0 -13 4 0 5
5 11 11 13 7 2 13 37 15 91 2 48 5 91 8 95 8 14 9 159 1 172 -17 27 38 38 94
19z m4926 -64 c33 -8 81 -14 107 -15 26 0 59 -4 73 -10 14 -5 60 -12 101 -15
41 -2 79 -7 83 -10 10 -6 209 -37 266 -41 22 -2 60 -8 85 -14 25 -6 77 -15
115 -20 39 -5 77 -11 85 -14 8 -3 45 -7 82 -10 71 -5 143 -30 134 -45 -4 -5
-8 -33 -11 -63 -10 -124 -18 -174 -28 -189 -8 -10 -52 -22 -124 -34 -62 -10
-113 -21 -113 -24 0 -3 -23 -7 -51 -8 -29 0 -55 -7 -59 -14 -5 -6 -16 -9 -25
-5 -10 3 -24 1 -31 -5 -8 -6 -21 -8 -30 -5 -9 4 -22 2 -28 -3 -6 -5 -22 -11
-36 -13 l-25 -3 22 -13 c22 -12 126 -29 243 -38 36 -3 78 -9 94 -14 16 -6 47
-10 68 -10 50 0 81 -16 74 -38 -6 -18 -15 -96 -21 -181 -2 -29 -8 -58 -13 -63
-6 -6 -30 -6 -66 1 -31 6 -62 8 -69 5 -8 -3 -34 0 -58 6 -24 6 -80 15 -124 20
-168 19 -241 29 -274 39 -19 6 -55 10 -80 10 -25 -1 -65 4 -89 10 -24 7 -69
14 -100 16 -31 2 -77 8 -102 14 -25 5 -65 10 -89 11 -25 0 -71 7 -103 16 l-58
17 0 66 c0 36 4 82 9 101 5 19 12 56 16 81 7 51 11 54 115 64 25 2 56 7 70 11
14 3 47 8 74 9 27 2 52 9 56 15 4 7 13 9 20 5 13 -8 122 11 157 27 12 6 29 8
37 5 27 -11 18 9 -10 22 -15 6 -35 9 -46 5 -11 -3 -52 1 -91 9 -117 25 -208
39 -269 42 -79 4 -82 7 -74 79 4 33 9 92 11 130 4 61 16 96 34 96 3 0 33 -7
66 -15z m-1755 -110 c30 -4 83 -20 118 -36 34 -16 68 -29 76 -29 8 0 23 -11
34 -25 11 -14 28 -25 37 -25 9 0 19 -9 22 -20 3 -10 13 -22 22 -25 17 -6 71
-78 71 -95 0 -6 5 -10 10 -10 6 0 10 -5 10 -11 0 -5 10 -31 21 -57 22 -46 41
-168 31 -187 -3 -5 -7 -31 -8 -58 -3 -74 -68 -206 -135 -275 -60 -62 -87 -78
-96 -56 -3 9 -17 28 -29 42 -13 14 -24 31 -24 39 0 7 -7 16 -15 19 -8 4 -15
12 -15 18 0 7 -8 21 -18 32 -10 10 -25 34 -32 52 -8 17 -18 32 -22 32 -8 0 5
46 26 91 22 48 23 102 3 132 -9 15 -17 32 -17 40 0 31 -95 88 -170 102 -63 12
-68 15 -90 63 -12 26 -35 66 -51 90 -16 24 -29 47 -29 52 0 5 -9 25 -20 45
-15 26 -17 37 -8 40 73 26 103 31 168 29 41 -1 100 -5 130 -9z"/>
<path d="M3643 7718 c-29 -14 -29 -17 7 -80 17 -29 36 -64 42 -78 28 -64 45
-93 69 -116 26 -25 28 -25 52 -9 14 9 28 23 31 32 9 22 -4 80 -20 94 -8 6 -14
22 -14 35 0 13 -4 24 -9 24 -5 0 -12 8 -15 18 -17 44 -33 63 -56 68 -14 3 -33
9 -42 15 -20 10 -17 11 -45 -3z"/>
<path d="M7745 5971 c-16 -5 -50 -16 -75 -25 -25 -10 -60 -22 -79 -28 -19 -5
-44 -16 -55 -23 -12 -7 -35 -16 -53 -20 -17 -3 -37 -12 -43 -20 -6 -7 -29 -16
-51 -20 -21 -4 -41 -11 -45 -16 -3 -5 -13 -9 -22 -9 -10 0 -34 -9 -55 -20 -20
-11 -43 -20 -50 -20 -8 0 -27 -6 -43 -14 -16 -7 -53 -24 -82 -37 -55 -25 -75
-57 -55 -88 12 -19 61 -33 69 -20 3 6 13 9 22 8 17 -2 34 3 89 27 17 8 46 17
65 20 18 4 40 12 48 19 8 7 26 16 40 19 28 8 88 31 140 54 19 9 45 18 57 19
13 2 45 15 72 28 27 14 61 25 75 25 14 0 26 4 26 8 0 4 23 16 51 27 28 11 58
28 67 38 15 17 15 21 1 45 -16 29 -57 37 -114 23z"/>
<path d="M4688 4799 c-10 -5 -18 -17 -18 -24 0 -8 -4 -15 -10 -15 -15 0 -55
-43 -52 -56 1 -7 -4 -14 -12 -17 -8 -3 -20 -25 -26 -49 -7 -23 -20 -49 -30
-58 -16 -14 -33 -68 -45 -145 -3 -16 0 -43 7 -58 9 -23 8 -31 -1 -37 -10 -6
-11 -23 -2 -81 7 -40 16 -78 21 -84 6 -7 7 -14 4 -18 -7 -7 27 -67 38 -67 4 0
8 -6 8 -14 0 -8 14 -28 30 -44 17 -17 30 -34 30 -39 0 -4 17 -19 36 -33 20
-14 45 -35 57 -47 11 -12 36 -28 56 -34 20 -7 41 -17 46 -24 6 -7 39 -23 75
-36 59 -22 80 -24 234 -24 127 0 170 3 174 13 2 6 19 12 38 12 19 0 34 5 34
11 0 5 5 7 10 4 21 -13 29 6 13 31 -14 22 -21 25 -52 19 -20 -4 -42 -12 -49
-18 -19 -15 -289 -16 -318 -1 -12 7 -25 10 -28 7 -3 -3 -11 -1 -18 4 -7 5 -40
20 -73 33 -33 12 -67 30 -75 40 -20 22 -61 45 -80 45 -8 0 -16 5 -16 10 -4 30
-18 55 -30 55 -8 0 -14 5 -14 10 0 6 -12 29 -27 52 -40 59 -60 142 -57 230 4
98 12 171 22 177 4 4 16 26 27 50 11 25 30 55 42 67 13 13 23 29 23 37 0 13
22 34 57 55 7 5 16 22 19 40 6 30 5 32 -22 32 -16 0 -37 -5 -46 -11z"/>
<path d="M4743 4547 c-48 -24 -30 -119 24 -130 36 -7 93 36 93 69 0 13 -4 24
-10 24 -5 0 -10 7 -10 15 0 15 -40 36 -63 34 -7 -1 -22 -6 -34 -12z"/>
<path d="M4936 4428 c-3 -13 -6 -44 -6 -70 0 -38 4 -48 16 -48 10 0 14 -6 11
-15 -10 -25 85 -101 144 -115 27 -7 52 -10 55 -8 8 9 -14 52 -45 88 -17 19
-31 39 -31 43 0 10 -42 71 -52 75 -5 2 -8 10 -8 18 0 8 -4 14 -9 14 -5 0 -11
9 -14 20 -7 29 -53 27 -61 -2z"/>
<path d="M5264 4812 c-26 -22 -47 -69 -33 -77 5 -4 7 -11 4 -16 -9 -14 60 -42
88 -35 58 14 53 115 -7 136 -34 12 -27 13 -52 -8z"/>
<path d="M5507 4350 c-15 -14 -17 -26 -12 -52 10 -47 22 -58 66 -58 28 0 42 6
53 22 36 50 7 108 -52 107 -22 0 -44 -8 -55 -19z"/>
</g>
</svg>
